<?xml version="1.0" encoding="UTF-8"?>
<svg version="1.1" xmlns="http://www.w3.org/2000/svg" width="664" height="600">
<path d="M0 0 C1.25854492 1.71826172 1.25854492 1.71826172 2.48046875 3.9296875 C2.92197266 4.72503906 3.36347656 5.52039063 3.81835938 6.33984375 C4.27017578 7.17644531 4.72199219 8.01304687 5.1875 8.875 C5.65091797 9.70386719 6.11433594 10.53273437 6.59179688 11.38671875 C10 17.60079161 10 17.60079161 10 21 C10.96629388 22.03260647 11.97105288 23.02981041 13 24 C14.1315918 25.75488281 14.1315918 25.75488281 15.19921875 27.703125 C15.59979492 28.42878662 16.00037109 29.15444824 16.41308594 29.90209961 C16.83364258 30.67690674 17.25419922 31.45171387 17.6875 32.25 C18.12739258 33.05123291 18.56728516 33.85246582 19.02050781 34.67797852 C22.45468561 40.94976056 25.83116146 47.25223008 29.171875 53.57421875 C31.37164731 57.69644165 33.65592386 61.76837699 35.96875 65.828125 C37 68 37 68 37 71 C38.21429688 70.71125 39.42859375 70.4225 40.6796875 70.125 C51.02407192 67.82499685 61.01620978 66.59309492 71.625 66.5625 C73.22190674 66.54799805 73.22190674 66.54799805 74.85107422 66.53320312 C86.07608536 66.65245024 97.11738147 69.09217294 105.8203125 76.5625 C110.63813751 81.58979566 111.95633353 87.0340178 112.03198242 93.90478516 C111.89136445 97.17627379 111.65565881 100.42504544 111.375 103.6875 C111.27872314 104.87214844 111.18244629 106.05679688 111.08325195 107.27734375 C107.13211797 152.01486079 91.15840892 195.76975396 63 231 C62.36336426 231.804375 61.72672852 232.60875 61.07080078 233.4375 C43.92022943 254.80320189 23.66639692 272.30052066 0 286 C-0.66435059 286.38639648 -1.32870117 286.77279297 -2.01318359 287.17089844 C-30.81489134 303.70226112 -64.81684534 313.10630848 -98 314 C-99.05960938 314.03996094 -100.11921875 314.07992188 -101.2109375 314.12109375 C-145.00626103 315.00532237 -191.36511944 301.92071449 -227 276 C-228.02351563 275.26394531 -229.04703125 274.52789062 -230.1015625 273.76953125 C-244.45949366 263.21009074 -258.59957653 251.77964229 -270 238 C-270.84046875 237.03578125 -271.6809375 236.0715625 -272.546875 235.078125 C-278.93658644 227.72677371 -284.61708708 220.12088837 -290 212 C-286.05670342 206.46392088 -281.75174857 201.39356555 -277.1484375 196.39453125 C-274.99959754 193.99955144 -272.98656956 191.53040422 -271 189 C-269.28515625 189.10546875 -269.28515625 189.10546875 -267 190 C-265.33851712 192.07611319 -263.88673328 194.09712269 -262.4375 196.3125 C-258.23567265 202.47180832 -253.64211654 207.92392924 -248.51953125 213.328125 C-246.43163771 215.54226327 -244.45344433 217.79392085 -242.5 220.125 C-234.49660432 229.30425002 -224.81918156 236.86439122 -215 244 C-214.44924805 244.40186523 -213.89849609 244.80373047 -213.33105469 245.21777344 C-174.03445672 273.52135909 -125.16282031 286.51721863 -77.10546875 279.47851562 C-41.46359059 273.6241695 -9.83824813 257.44473713 16.67578125 233.078125 C18.27217802 231.65075848 19.91685994 230.2761632 21.59765625 228.94921875 C25.20936447 226.0187433 27.9990655 222.53782485 31 219 C32.25876953 217.57300781 32.25876953 217.57300781 33.54296875 216.1171875 C50.10509069 197.2152808 63.02321312 174.4524432 72 151 C56.97276065 151.24708465 42.89460799 154.79042774 28.93359375 160.30078125 C27 161 27 161 25 161 C24.773125 161.556875 24.54625 162.11375 24.3125 162.6875 C21.39120958 167.8345355 16.61472406 172.12842531 11 174 C7.96405923 173.95303045 4.94205796 173.80608239 1.91015625 173.64453125 C-1.74362074 174.09083153 -2.73846922 175.16927496 -5 178 C-5.61875 178.99 -6.2375 179.98 -6.875 181 C-10.82658686 186.57871086 -15.38853476 188.38784216 -21.8515625 189.703125 C-24 190 -24 190 -28 190 C-28.17015625 190.58007812 -28.3403125 191.16015625 -28.515625 191.7578125 C-31.12873307 200.18091617 -34.97058538 205.68465447 -42 211 C-44.24512262 212.12256131 -45.51456649 212.13413762 -48 212.125 C-49.051875 212.12886719 -49.051875 212.12886719 -50.125 212.1328125 C-52 212 -52 212 -54 211 C-54 209.68 -54 208.36 -54 207 C-53.33613281 206.91363281 -52.67226563 206.82726562 -51.98828125 206.73828125 C-46.12578482 205.80541685 -42.72725144 204.9331269 -39 200 C-36.07808561 195.82274394 -36.07808561 195.82274394 -35 191 C-44.9 187.535 -44.9 187.535 -55 184 C-42.74489757 159.48979513 -3.59894789 142.6794121 21.03466797 134.30859375 C39.59472933 128.22760009 57.5151761 126.44535334 77 126 C31.69213336 124.61616244 -14.50117024 142.24006827 -48 173 C-51.11383141 176.24129819 -54.09824902 179.56805254 -57 183 C-63.66959053 181.03546019 -70.28849977 178.95338871 -76.8828125 176.75 C-78.23147903 176.30092285 -78.23147903 176.30092285 -79.60739136 175.84277344 C-81.49159895 175.21492929 -83.37555851 174.58634031 -85.25927734 173.95703125 C-88.1239308 173.00035707 -90.98964141 172.04690113 -93.85546875 171.09375 C-95.69798084 170.47935908 -97.54043089 169.86478208 -99.3828125 169.25 C-100.65186935 168.82799316 -100.65186935 168.82799316 -101.94656372 168.39746094 C-104.301644 167.60937161 -106.65123888 166.80669757 -109 166 C-109.760849 165.74798828 -110.521698 165.49597656 -111.30560303 165.23632812 C-116.77155653 163.3426652 -116.77155653 163.3426652 -119 160 C-115.75274924 157.33233189 -112.37907202 155.73283633 -108.5625 154 C-101.31345578 150.5220474 -95.74324315 145.89996928 -89.79052734 140.56933594 C-86.42028669 137.61543535 -82.92279569 134.8162328 -79.4375 132 C-78.41873779 131.17218018 -78.41873779 131.17218018 -77.37939453 130.32763672 C-75.59167902 128.87817403 -73.79779478 127.43692952 -72 126 C-71.22785156 125.38125 -70.45570313 124.7625 -69.66015625 124.125 C-68 123 -68 123 -66 123 C-66.34369629 122.5059668 -66.68739258 122.01193359 -67.04150391 121.50292969 C-68.58611968 119.26300031 -70.10559009 117.00709444 -71.625 114.75 C-72.16640625 113.97269531 -72.7078125 113.19539063 -73.265625 112.39453125 C-73.76835937 111.64042969 -74.27109375 110.88632812 -74.7890625 110.109375 C-75.26037598 109.41811523 -75.73168945 108.72685547 -76.21728516 108.01464844 C-77 106 -77 106 -76.41870117 103.93041992 C-74.69176045 101.58057992 -73.02424036 100.48434495 -70.51171875 99.00390625 C-69.58713867 98.450979 -68.66255859 97.89805176 -67.70996094 97.32836914 C-66.71254883 96.74563232 -65.71513672 96.16289551 -64.6875 95.5625 C-62.60212365 94.32416357 -60.51750585 93.08454894 -58.43359375 91.84375 C-57.36866699 91.21210938 -56.30374023 90.58046875 -55.20654297 89.9296875 C-52.07890572 88.04748521 -48.99002184 86.11548012 -45.91015625 84.15625 C-44.95729736 83.55224365 -44.00443848 82.9482373 -43.02270508 82.32592773 C-41.19891264 81.16600409 -39.37958296 79.99902824 -37.56518555 78.82446289 C-36.74445557 78.3061792 -35.92372559 77.78789551 -35.078125 77.25390625 C-34.36043945 76.79314697 -33.64275391 76.3323877 -32.90332031 75.85766602 C-31 75 -31 75 -28 76 C-26.50597955 78.27300388 -25.17204184 80.49471443 -23.875 82.875 C-23.51535156 83.51308594 -23.15570313 84.15117187 -22.78515625 84.80859375 C-21.27983706 87.50914765 -19.97973488 90.06079537 -19 93 C-18.34 93 -17.68 93 -17 93 C-17.53109375 92.154375 -18.0621875 91.30875 -18.609375 90.4375 C-19.32310121 89.29178161 -20.03663234 88.14594167 -20.75 87 C-21.79414062 85.329375 -21.79414062 85.329375 -22.859375 83.625 C-24.35886412 81.15748625 -25.69053661 78.65880851 -26.953125 76.0625 C-29.01771299 71.84806079 -31.45984439 67.94108991 -34 64 C-36.94529508 59.43033006 -39.61753109 54.87211446 -41.99511719 49.98193359 C-44.02653081 45.97536999 -46.45817136 42.19811034 -48.8203125 38.38085938 C-50.88608393 34.99955445 -52.6649662 31.75388535 -54 28 C-52.96746094 27.42894531 -51.93492187 26.85789063 -50.87109375 26.26953125 C-41.89445398 21.29778972 -32.9376199 16.29156625 -24 11.25 C-23.05825928 10.71995361 -22.11651855 10.18990723 -21.14624023 9.64379883 C-20.23173096 9.12712646 -19.31722168 8.6104541 -18.375 8.078125 C-17.04082031 7.32499023 -17.04082031 7.32499023 -15.6796875 6.55664062 C-12.08760439 4.46998593 -8.58472636 2.24640024 -5.09375 -0.00488281 C-3 -1 -3 -1 0 0 Z M21 75 C24.76624671 76.25541557 26.37188934 75.37061958 30 74 C26.38055101 72.65946334 24.42632833 73.38201162 21 75 Z M-20 110 C-20.33 111.32 -20.66 112.64 -21 114 C-20.01 114.33 -19.02 114.66 -18 115 C-17.67 113.35 -17.34 111.7 -17 110 C-17.99 110 -18.98 110 -20 110 Z M-37 120 C-37 120.99 -37 121.98 -37 123 C-36.01 123 -35.02 123 -34 123 C-34 122.01 -34 121.02 -34 120 C-34.99 120 -35.98 120 -37 120 Z M-55 131 C-55 131.99 -55 132.98 -55 134 C-53.68 134 -52.36 134 -51 134 C-51.33 133.01 -51.66 132.02 -52 131 C-52.99 131 -53.98 131 -55 131 Z " fill="#176F97" transform="translate(472,177)"/>
<path d="M0 0 C-1.09918289 3.29754868 -1.57152338 3.68224796 -4.296875 5.57421875 C-5.34790405 6.31575195 -5.34790405 6.31575195 -6.42016602 7.07226562 C-7.18901123 7.60529297 -7.95785645 8.13832031 -8.75 8.6875 C-15.78826668 13.66587272 -22.71748883 18.75886457 -29.5625 24 C-30.88471558 25.01199463 -30.88471558 25.01199463 -32.23364258 26.04443359 C-33.98477593 27.38614613 -35.73535564 28.7285816 -37.48535156 30.07177734 C-39.8592999 31.89211171 -42.23724195 33.70704786 -44.6171875 35.51953125 C-56.90779842 44.88276205 -69.06418632 54.38762174 -81.03271484 64.15966797 C-85.37754226 67.70133832 -89.76463016 71.18148433 -94.1875 74.625 C-99.88880411 79.07035765 -105.4202948 83.68920585 -110.91796875 88.3828125 C-113.74683013 90.79496524 -116.61575122 93.15419998 -119.5 95.5 C-129.2948482 103.48046243 -138.86987534 111.72478864 -148.453125 119.95703125 C-150.83383161 122.00167679 -153.21952809 124.04026526 -155.609375 126.07421875 C-162.02161109 131.53755892 -168.34078054 137.07236887 -174.55078125 142.765625 C-177.32770218 145.29895637 -180.15286756 147.77095372 -182.98828125 150.23828125 C-190.59785983 156.90220347 -198.03301448 163.76273167 -205.48095703 170.60595703 C-206.95289916 171.95677503 -208.42757736 173.30460973 -209.90234375 174.65234375 C-212.94017668 177.42920848 -215.97226754 180.21213274 -219 183 C-219.87229248 183.80244141 -219.87229248 183.80244141 -220.76220703 184.62109375 C-228.36667589 191.62877668 -235.84981923 198.72452375 -243.08154297 206.1184082 C-245.85669376 208.93796479 -248.6818943 211.62166397 -251.6875 214.1953125 C-256.70508946 218.53275452 -261.36864289 223.21859187 -266.0456543 227.9152832 C-267.5599258 229.43491668 -269.0794743 230.94912517 -270.59960938 232.46289062 C-275.39263149 237.25297746 -280.05942222 242.09959375 -284.46850586 247.25024414 C-286.84775475 249.96857298 -289.41484061 252.4794589 -292 255 C-295.84270631 258.79598109 -299.53423643 262.63668759 -303.03515625 266.75390625 C-305.19024702 269.2174792 -307.41883314 271.60021753 -309.65942383 273.98583984 C-314.96842358 279.63859865 -320.0487087 285.3758416 -324.8984375 291.43359375 C-326.98001427 293.97559363 -329.1503838 296.39529335 -331.375 298.8125 C-336.4474461 304.38777989 -341.05001848 310.28934188 -345.64892578 316.25488281 C-346.91019065 317.88399761 -348.18694821 319.50108506 -349.46484375 321.1171875 C-378.44149339 356.94417416 -378.44149339 356.94417416 -390 400 C-389.28037524 404.2629945 -387.48319019 406.38760736 -384 409 C-371.90561068 414.94220864 -355.86970096 409.96674768 -343.88037109 405.95654297 C-319.68208852 397.5637737 -295.95496687 387.7788178 -272.29296875 377.99609375 C-271.50344818 377.66987534 -270.71392761 377.34365692 -269.90048218 377.0075531 C-266.0928297 375.43333615 -262.28732201 373.85424978 -258.48535156 372.26635742 C-257.12436823 371.70096272 -255.76336665 371.13561196 -254.40234375 370.5703125 C-253.21116943 370.07289551 -252.01999512 369.57547852 -250.79272461 369.06298828 C-248 368 -248 368 -246 368 C-246 368.99 -246 369.98 -246 371 C-248.34654088 373.08205528 -250.67359993 374.94998159 -253.1875 376.8125 C-253.94272949 377.38000977 -254.69795898 377.94751953 -255.47607422 378.53222656 C-269.39927345 388.87064761 -283.96942294 398.35496222 -299 407 C-299.96510498 407.56267578 -299.96510498 407.56267578 -300.94970703 408.13671875 C-380.07490037 454.12596943 -380.07490037 454.12596943 -415.47265625 446.46484375 C-424.32852888 443.75929335 -430.64666434 438.49230642 -436 431 C-442.24848693 418.50302614 -438.95232466 403.70226886 -435 391 C-419.17147849 343.95657293 -382.83442058 302.32362837 -349.43945312 266.55273438 C-347.16458285 264.09883767 -344.9310544 261.60751286 -342.6875 259.125 C-337.69647672 253.66175472 -332.49643764 248.43141182 -327.21362305 243.25048828 C-324.50373554 240.57854426 -321.95935723 237.95000809 -319.5546875 234.9921875 C-316.95658044 231.94914467 -314.20146378 229.49972518 -311.16796875 226.91015625 C-307.25827172 223.46539616 -303.65167994 219.7139953 -300 216 C-295.10123692 211.01764028 -290.17166039 206.17252596 -284.87109375 201.6171875 C-282.01496944 199.14863747 -279.26133798 196.57344258 -276.5 194 C-269.03590576 187.0828391 -261.36100066 180.43666842 -253.62524414 173.82641602 C-250.48636007 171.14204601 -247.35934215 168.44568522 -244.25390625 165.72265625 C-237.68194154 159.96609089 -231.04091909 154.37292815 -224.13110352 149.02539062 C-220.14229941 145.92943421 -216.26997633 142.72445682 -212.4375 139.4375 C-206.70883972 134.53805597 -200.79778701 129.90786269 -194.78808594 125.35839844 C-192.87593895 123.90575154 -190.97247624 122.44225503 -189.0703125 120.9765625 C-178.49062481 112.83258506 -167.7842561 104.87073177 -157 97 C-155.84467773 96.15622803 -155.84467773 96.15622803 -154.66601562 95.29541016 C-112.84643458 64.79827707 -69.18733108 36.54103613 -23.84179688 11.57373047 C-21.06648012 10.03681536 -18.30482018 8.4779947 -15.546875 6.91015625 C-14.29221436 6.20040649 -14.29221436 6.20040649 -13.01220703 5.47631836 C-11.46895567 4.60273518 -9.92808589 3.72492532 -8.39013672 2.84204102 C-3.33775382 0 -3.33775382 0 0 0 Z " fill="#F68D1E" transform="translate(475,112)"/>
<path d="M0 0 C0 0.66 0 1.32 0 2 C-0.68320312 1.89042969 -1.36640625 1.78085937 -2.0703125 1.66796875 C-4.30567274 1.31637117 -6.54295403 0.97692777 -8.78125 0.64453125 C-11.70736688 0.20853427 -14.61839158 -0.28404311 -17.53125 -0.80078125 C-60.105522 -7.93782477 -104.13206564 -1.6528018 -143 17 C-143.75748535 17.36351563 -144.5149707 17.72703125 -145.29541016 18.1015625 C-160.76427474 25.6543078 -174.6392971 35.25800473 -187.50048828 46.67236328 C-188.96666777 47.97048833 -190.44997837 49.24918243 -191.93359375 50.52734375 C-198.37254285 56.1804017 -203.73346986 62.25805975 -209 69 C-209.64324219 69.76570313 -210.28648437 70.53140625 -210.94921875 71.3203125 C-237.34953687 102.9150137 -253.9580498 146.36827198 -254.203125 187.671875 C-254.21009399 188.46836456 -254.21706299 189.26485413 -254.22424316 190.08547974 C-254.2415297 192.64037429 -254.24796242 195.19504941 -254.25 197.75 C-254.25100708 198.62271545 -254.25201416 199.49543091 -254.25305176 200.39459229 C-254.23956977 217.65431451 -252.61110529 233.8565477 -248.27050781 250.58935547 C-246.51777658 257.38332438 -246.51777658 257.38332438 -247 261 C-248.21484375 262.6328125 -248.21484375 262.6328125 -249.9375 264.125 C-254.13090294 267.9689527 -257.45691972 272.31348375 -260.88671875 276.83984375 C-261.58410156 277.55269531 -262.28148437 278.26554687 -263 279 C-264.32 279 -265.64 279 -267 279 C-270.32896374 270.16053885 -272.75135675 261.30441571 -274.6875 252.0625 C-274.88947998 251.11181641 -275.09145996 250.16113281 -275.29956055 249.18164062 C-278.22768011 234.73706247 -279.38196094 220.63505335 -279.3125 205.9375 C-279.30976578 204.72852051 -279.30976578 204.72852051 -279.30697632 203.49511719 C-279.25639017 190.14960147 -278.54993005 177.13113587 -276 164 C-275.75056641 162.70449219 -275.75056641 162.70449219 -275.49609375 161.3828125 C-267.89385142 123.42791373 -250.4779419 87.36214001 -224 59 C-222.80722289 57.62957524 -221.61942068 56.25479881 -220.4375 54.875 C-213.60785398 47.07638818 -206.14362925 40.40720088 -198 34 C-197.09636719 33.27941406 -196.19273437 32.55882812 -195.26171875 31.81640625 C-166.50672741 9.50444201 -132.72787204 -3.95483888 -97 -10 C-96.2255957 -10.13132324 -95.45119141 -10.26264648 -94.65332031 -10.39794922 C-67.73274157 -14.70355098 -23.42983086 -16.71601968 0 0 Z " fill="#176F97" transform="translate(420,46)"/>
<path d="M0 0 C4.45115191 0.23427115 7.61967742 1.79832711 11.5 3.8125 C14.28284064 5.23205856 14.28284064 5.23205856 17 6 C20.46090454 4.41632508 20.46090454 4.41632508 23 2 C25.125 1.9375 25.125 1.9375 27 3 C29.3125 5.25 29.3125 5.25 31 8 C30.75 10.8125 30.75 10.8125 30 13 C32.98122078 13.88544805 35.90322359 14.66666643 39 15 C41.24755753 13.6483633 41.24755753 13.6483633 43 12 C45.5 11.9375 45.5 11.9375 48 13 C50.375 15.875 50.375 15.875 52 19 C51.505 20.485 51.505 20.485 51 22 C54.75959287 24.4131252 54.75959287 24.4131252 59 25 C62.27992303 23.12640013 65.08187666 20.83611008 67.9765625 18.43359375 C75.91438963 12.0443608 85.70264063 8.06387642 96 9 C98.45961948 9.83434151 100.65828278 10.85303646 103 12 C103.90218505 21.02185045 100.90138611 27.78799199 95.5 35.00390625 C91.43132873 39.38789954 86.4153356 42.55432483 81.26733398 45.54174805 C79.33964574 46.68482881 79.33964574 46.68482881 77 49 C76.5778111 52.4970691 76.41221997 54.82443994 78 58 C78.61875 58.103125 79.2375 58.20625 79.875 58.3125 C82 59 82 59 83.75 61.3125 C85 64 85 64 85 68 C84.01 68.556875 83.02 69.11375 82 69.6875 C78.80776351 71.61122752 78.80776351 71.61122752 78.6015625 74.25390625 C78.62292059 76.52854284 78.73933445 78.74089856 79 81 C80.11375 80.814375 80.11375 80.814375 81.25 80.625 C84 81 84 81 86.375 83.75 C88 87 88 87 88 89.1875 C86.70725559 91.53059923 85.2754212 92.62095685 83 94 C82.34 94 81.68 94 81 94 C81.16371094 94.84820312 81.32742188 95.69640625 81.49609375 96.5703125 C82.00948445 100.0645531 82.09850739 103.34627574 82.0625 106.875 C82.05347656 108.02742188 82.04445313 109.17984375 82.03515625 110.3671875 C82.02355469 111.23601562 82.01195312 112.10484375 82 113 C80.35 113.33 78.7 113.66 77 114 C71.61882487 103.5398097 66.76742775 92.90306088 62.0625 82.125 C61.37207269 80.55063741 60.68131916 78.97641785 59.99023438 77.40234375 C58.32307383 73.60319363 56.66028311 69.80216039 55 66 C51.15503996 66 49.32508316 67.2928919 45.9765625 69.17578125 C45.3933725 69.5016069 44.8101825 69.82743256 44.20932007 70.16313171 C42.34448613 71.20700064 40.48479743 72.25968917 38.625 73.3125 C37.38052554 74.01033161 36.13573711 74.70760363 34.890625 75.40429688 C28.50485476 78.96755665 28.50485476 78.96755665 22.23193359 82.72338867 C20 84 20 84 18 84 C18.06058594 84.55872803 18.12117187 85.11745605 18.18359375 85.69311523 C18.46062962 88.27407726 18.73034719 90.85575657 19 93.4375 C19.09539063 94.31599609 19.19078125 95.19449219 19.2890625 96.09960938 C19.87468396 101.76758855 20.09274645 107.30188968 20 113 C17.525 113.495 17.525 113.495 15 114 C11.28536512 106.79360832 7.85514371 99.59132327 5 92 C4.33613281 92.2165625 3.67226563 92.433125 2.98828125 92.65625 C2.10527344 92.9346875 1.22226562 93.213125 0.3125 93.5 C-0.55761719 93.7784375 -1.42773438 94.056875 -2.32421875 94.34375 C-4.99391677 94.99850805 -7.26396684 95.11831495 -10 95 C-10.71484375 92.80078125 -10.71484375 92.80078125 -11 90 C-9.56640625 87.54296875 -9.56640625 87.54296875 -7.5625 85.1875 C-6.90378906 84.39730469 -6.24507813 83.60710937 -5.56640625 82.79296875 C-5.04949219 82.20128906 -4.53257812 81.60960938 -4 81 C-8.34232798 75.48406986 -13.11750396 71.36011507 -18.70703125 67.11328125 C-21 65 -21 65 -21.94921875 62.85546875 C-21.96597656 62.24316406 -21.98273438 61.63085938 -22 61 C-21.34 60.34 -20.68 59.68 -20 59 C-16.41555169 59.37112849 -13.52228925 60.55404064 -10.3125 62.13671875 C-9.44882812 62.54857422 -8.58515625 62.96042969 -7.6953125 63.38476562 C-5.893821 64.25548651 -4.09692015 65.1357679 -2.3046875 66.02539062 C-1.44101562 66.43337891 -0.57734375 66.84136719 0.3125 67.26171875 C1.09238281 67.64287842 1.87226563 68.02403809 2.67578125 68.41674805 C5.76057746 69.1908634 7.22439743 68.44758394 10 67 C12.00457054 65.31942458 12.00457054 65.31942458 13.8125 63.3125 C17.00057047 59.99952379 20.28590599 56.93829745 23.76953125 53.94140625 C28.250602 50.04106971 32.61425629 46.00682836 37 42 C32.95269346 36.99412086 28.60530717 32.71831326 23.78125 28.4609375 C20.77699623 25.80267925 17.82376626 23.0943609 14.875 20.375 C10.84413092 16.66565065 6.77408297 13.00996384 2.62109375 9.4375 C-0.65022091 6.53667158 -0.65022091 6.53667158 -2 5 C-1.74853421 2.86254078 -1.54074221 1.54074221 0 0 Z " fill="#F68D1E" transform="translate(502,9)"/>
<path d="M0 0 C1.68059086 2.90885248 3.34195109 5.82824894 5 8.75 C5.47695313 9.575 5.95390625 10.4 6.4453125 11.25 C6.89648438 12.04921875 7.34765625 12.8484375 7.8125 13.671875 C8.23144531 14.4050293 8.65039062 15.13818359 9.08203125 15.89355469 C10 18 10 18 10 22 C8.25366211 23.51708984 8.25366211 23.51708984 5.77734375 24.9609375 C4.85638916 25.50862793 3.93543457 26.05631836 2.98657227 26.62060547 C1.98037842 27.19955566 0.97418457 27.77850586 -0.0625 28.375 C-2.15911506 29.61414202 -4.255461 30.85373947 -6.3515625 32.09375 C-7.98593262 33.05087891 -7.98593262 33.05087891 -9.65332031 34.02734375 C-15.11860635 37.2487846 -20.52538519 40.56529514 -25.9375 43.875 C-27.88383766 45.06035065 -29.83042665 46.2452888 -31.77734375 47.4296875 C-32.59452881 47.92710449 -33.41171387 48.42452148 -34.25366211 48.93701172 C-34.82995361 49.28779785 -35.40624512 49.63858398 -36 50 C-39.83636592 46.31661956 -42.50739759 42.42162773 -45.3125 37.9375 C-46.01342773 36.85758789 -46.01342773 36.85758789 -46.72851562 35.75585938 C-47.16486328 35.06169922 -47.60121094 34.36753906 -48.05078125 33.65234375 C-48.44950439 33.02320068 -48.84822754 32.39405762 -49.2590332 31.74584961 C-50 30 -50 30 -49 27 C-46.6517611 25.4477226 -44.32855722 24.05493369 -41.875 22.6875 C-40.33481385 21.80664932 -38.79581789 20.92371537 -37.2578125 20.0390625 C-36.42024414 19.55856445 -35.58267578 19.07806641 -34.71972656 18.58300781 C-29.68408593 15.6520299 -24.72064388 12.60195756 -19.75 9.5625 C-17.80731916 8.37625705 -15.86461235 7.19005664 -13.921875 6.00390625 C-13.09268555 5.49674072 -12.26349609 4.9895752 -11.40917969 4.46704102 C-10.21663574 3.74085571 -10.21663574 3.74085571 -9 3 C-8.15598633 2.44304443 -7.31197266 1.88608887 -6.44238281 1.31225586 C-4 0 -4 0 0 0 Z " fill="#176F97" transform="translate(431,230)"/>
<path d="M0 0 C1.32 0.33 2.64 0.66 4 1 C3.18598354 6.98354955 0.02952876 10.67013369 -4 15 C-8.83845659 18.47106669 -13.26638247 18.34401705 -19 18 C-19.165 18.680625 -19.33 19.36125 -19.5 20.0625 C-21.74525231 24.45945244 -24.83830695 27.36449659 -29 30 C-32.02750303 30.90969487 -34.84795958 31.37275167 -38 31 C-38.66 30.34 -39.32 29.68 -40 29 C-39.625 26.875 -39.625 26.875 -39 25 C-38.41992188 24.93683594 -37.83984375 24.87367188 -37.2421875 24.80859375 C-30.49317343 23.75057999 -27.9455807 21.36838101 -24 16 C-21.50969959 12.87980007 -19.53356949 12.53902423 -15.625 12.0625 C-8.99075602 10.98007072 -6.08757192 8.59774404 -2.1875 3.25 C-1.465625 2.1775 -0.74375 1.105 0 0 Z " fill="#176F97" transform="translate(496,346)"/>
</svg>
